<?xml version="1.0" encoding="utf-8"?>
<!-- Generator: Adobe Illustrator 16.0.0, SVG Export Plug-In . SVG Version: 6.00 Build 0)  -->
<!DOCTYPE svg PUBLIC "-//W3C//DTD SVG 1.1//EN" "http://www.w3.org/Graphics/SVG/1.1/DTD/svg11.dtd">
<svg version="1.1" id="Layer_1" xmlns="http://www.w3.org/2000/svg" xmlns:xlink="http://www.w3.org/1999/xlink" x="0px" y="0px"
	 width="23.003px" height="23.003px" viewBox="0 0 23.003 23.003" enable-background="new 0 0 23.003 23.003" xml:space="preserve">
<g>
	<path fill="#FFFFFF" d="M11.502,23.003c-3.072,0-5.961-1.195-8.133-3.369C1.196,17.462,0,14.573,0,11.502
		c0-3.073,1.196-5.961,3.369-8.133C5.541,1.196,8.43,0,11.502,0c3.071,0,5.96,1.196,8.132,3.369c2.173,2.172,3.369,5.06,3.369,8.133
		c0,3.071-1.196,5.96-3.369,8.132C17.462,21.808,14.573,23.003,11.502,23.003 M11.502,1.983c-5.249,0-9.519,4.27-9.519,9.519
		c0,5.248,4.27,9.519,9.519,9.519c5.248,0,9.518-4.271,9.518-9.519C21.02,6.253,16.75,1.983,11.502,1.983"/>
	<path fill="#FFFFFF" d="M14.652,6.494L14.652,6.494l-3.151,3.151l-3.15-3.151c-0.513-0.513-1.345-0.513-1.856,0
		c-0.513,0.513-0.513,1.344,0,1.857l3.15,3.15l-3.15,3.151c-0.513,0.512-0.513,1.344,0,1.856c0.512,0.512,1.344,0.512,1.856,0
		l3.151-3.15l3.149,3.15h0.001c0.513,0.512,1.344,0.512,1.855,0c0.514-0.513,0.514-1.345,0-1.856h-0.001l-3.148-3.151l3.149-3.15
		c0.514-0.513,0.514-1.344,0-1.857C15.996,5.981,15.165,5.981,14.652,6.494"/>
</g>
</svg>
