<?xml version="1.0" encoding="utf-8"?>
<!-- Generator: Adobe Illustrator 16.0.0, SVG Export Plug-In . SVG Version: 6.00 Build 0)  -->
<!DOCTYPE svg PUBLIC "-//W3C//DTD SVG 1.1//EN" "http://www.w3.org/Graphics/SVG/1.1/DTD/svg11.dtd">
<svg version="1.1" id="Layer_1" xmlns="http://www.w3.org/2000/svg" xmlns:xlink="http://www.w3.org/1999/xlink" x="0px" y="0px"
	 width="304.5px" height="92.2px" viewBox="0 0 304.5 92.2" enable-background="new 0 0 304.5 92.2" xml:space="preserve">
<g>
	<g>
		<path d="M48.3,86.5c22.4,0,40.6-18.2,40.6-40.6c0-22.4-18.2-40.6-40.6-40.6C25.8,5.3,7.7,23.5,7.7,45.9
			C7.7,68.3,25.8,86.5,48.3,86.5L48.3,86.5z"/>
		<path fill="#FFFFFF" d="M91.6,46.1c0-23.9-19.4-43.3-43.3-43.3C24.4,2.8,4.9,22,4.9,46.1c0,23.9,19.4,43.3,43.3,43.3
			C72.2,89.5,91.6,70,91.6,46.1L91.6,46.1z M88.6,46.1c0,22.4-18.2,40.6-40.6,40.6c-22.4,0-40.6-18.2-40.6-40.6
			c0-22.4,18.2-40.6,40.6-40.6C70.7,5.6,88.6,23.7,88.6,46.1L88.6,46.1z"/>
		<path fill="#575756" d="M80.7,21.8C73.3,12,61.5,5.6,48.3,5.6C25.8,5.6,7.7,23.7,7.7,46.1c0,0.9,0,1.7,0,2.6
			c10.3-6.6,22-12.4,34.6-17.1C55.5,26.7,68.3,23.5,80.7,21.8L80.7,21.8z"/>
		<path fill="#FFFFFF" d="M83.9,20.9c0,0-11.7-0.2-12.2,12.2v0.6h-4.5v6.6h4.5v23.1L49.8,32c-0.4-1.5-1.1-5.3,4.1-5.3
			c6.4,0.2,7.7,0.2,7.7,0.2v-6.6c0,0-6.6-0.4-10.9,0c-4.3,0.4-13.7,4.5-7.5,15.8c0,0,0.6,1.1-1.5,2.3c0,0-19.9,9.6-1.5,25
			c0,0,10.2,7,19.6-2.6l3.2,3.6h9.6l-0.2-0.2h9V40.4h4.1v-6.6h-4.1v-2.1c0,0,0.6-4.9,5.6-3.6C91.8,29.3,83.9,20.9,83.9,20.9
			L83.9,20.9z M57.2,57.9c-7.5,3.8-11.3,0.4-11.3,0.4c-10-9,1.3-15.4,1.3-15.4L57.2,57.9L57.2,57.9z M16.7,41.2l13.5-0.6V34
			c0,0-20.9-2.1-22.6,5.3C5.6,47,5.1,49.8,14.1,51.7c8.8,1.9,11.7,3.2,7.3,6c0,0-5.3,1.5-12.6,0.9l2.6,7c0,0,12.2-0.2,17.5-2.3
			c0,0,9.4-7-0.9-14.9c0,0-5.8-2.6-11.7-3.6C16.2,44.8,9.8,42.9,16.7,41.2L16.7,41.2z"/>
		<path fill="#D0D0D0" d="M71.3,70.5h-0.6l-1.3,2.1l-1.3-2.1h-0.6l1.7,2.6v1.7h0.6V73L71.3,70.5L71.3,70.5z M67.1,73.5
			c0-0.2,0.2-0.6,0.2-1.1c0-0.6-0.2-1.3-0.6-1.5c-0.4-0.4-0.9-0.4-1.5-0.4h-1.5v4.3h1.5c0.4,0,0.6,0,0.9-0.2c0.2,0,0.4-0.2,0.6-0.4
			C66.8,73.9,67.1,73.7,67.1,73.5L67.1,73.5z M66.6,72.6c0,0.2,0,0.4,0,0.6c0,0.2-0.2,0.4-0.2,0.4c0,0.2-0.2,0.2-0.2,0.2
			c-0.2,0-0.2,0.2-0.4,0.2c-0.2,0-0.2,0-0.2,0h-0.2h-1.1v-3.4h1.1c0.2,0,0.4,0,0.6,0.2c0.2,0,0.4,0.2,0.4,0.4
			c0.2,0.2,0.2,0.2,0.2,0.4C66.6,72.2,66.6,72.4,66.6,72.6L66.6,72.6z M62.8,73.5c0-0.2,0.2-0.6,0.2-0.9c0-0.2,0-0.6-0.2-0.9
			c0-0.2-0.2-0.4-0.4-0.6c-0.2-0.2-0.4-0.4-0.6-0.4c-0.2-0.2-0.6-0.2-0.9-0.2c-0.4,0-0.6,0-0.9,0.2c-0.2,0.2-0.4,0.2-0.6,0.4
			c-0.2,0.2-0.2,0.4-0.4,0.6c0,0.2-0.2,0.6-0.2,0.9c0,0.2,0,0.6,0.2,0.9c0,0.2,0.2,0.4,0.4,0.6c0.2,0.2,0.4,0.4,0.6,0.4
			c0.2,0.2,0.6,0.2,0.9,0.2c0.4,0,0.6,0,0.9-0.2c0.2-0.2,0.4-0.2,0.6-0.4C62.6,73.9,62.8,73.7,62.8,73.5L62.8,73.5z M62.4,72.6
			c0,0.2,0,0.4,0,0.6c0,0.2-0.2,0.4-0.2,0.6c-0.2,0.2-0.2,0.2-0.4,0.4c-0.2,0-0.4,0.2-0.6,0.2c-0.2,0-0.4,0-0.6-0.2
			c-0.2,0-0.4-0.2-0.4-0.4c-0.2-0.2-0.2-0.4-0.2-0.6c0-0.2,0-0.4,0-0.6c0-0.2,0-0.4,0-0.6c0-0.2,0.2-0.4,0.2-0.6
			c0.2-0.2,0.2-0.2,0.4-0.4c0.2,0,0.4-0.2,0.6-0.2c0.2,0,0.4,0,0.6,0.2c0.2,0,0.4,0.2,0.4,0.4c0.2,0.2,0.2,0.4,0.2,0.6
			C62.4,72.2,62.4,72.4,62.4,72.6L62.4,72.6z M57.4,72.4L57.4,72.4c0.2,0,0.4-0.2,0.4-0.4c0-0.2,0.2-0.4,0.2-0.6s0-0.4-0.2-0.6
			c0-0.2-0.2-0.2-0.4-0.4h-0.2H57c0,0-0.2,0-0.4,0c-0.2,0-0.2,0-0.2,0h-1.5v4.3H57c0.2,0,0.4,0,0.6-0.2c0.2,0,0.2-0.2,0.4-0.2
			c0.2-0.2,0.2-0.2,0.2-0.4c0-0.2,0-0.2,0-0.4c0-0.2,0-0.4-0.2-0.6C57.9,72.6,57.7,72.6,57.4,72.4L57.4,72.4z M57.2,72.2
			c-0.2,0.2-0.4,0.2-0.6,0.2h-1.1v-1.5h1.1c0.2,0,0.2,0,0.4,0c0.2,0,0.2,0,0.2,0l0.2,0.2c0,0,0,0.2,0,0.4
			C57.4,71.7,57.4,72,57.2,72.2L57.2,72.2z M57.4,73.2c0,0,0,0.2,0,0.4c0,0.2,0,0.4-0.2,0.6c-0.2,0.2-0.4,0.2-0.6,0.2h-1.5V73h1.3
			c0.2,0,0.2,0,0.4,0c0.2,0,0.2,0,0.2,0.2C57.4,73,57.4,73,57.4,73.2L57.4,73.2z M51.7,72.6c0-0.4-0.4-0.9-0.9-0.9
			c-0.4,0-0.9,0.4-0.9,0.9c0,0.4,0.4,0.9,0.9,0.9C51.5,73.5,51.7,73,51.7,72.6L51.7,72.6z M46.3,74.7H47v-4.3h-0.6v1.9H44v-1.9h-0.6
			v4.3H44v-1.9h2.3V74.7L46.3,74.7z M41.6,70.9h1.5v-0.4h-3.4v0.4h1.5v3.8h0.6v-3.8H41.6z M40.2,74.3h-2.3v-3.8h-0.6v4.3h3V74.3
			L40.2,74.3z M36.1,74.7h0.6L35,70.5h-0.6l-1.7,4.3h0.6l0.4-1.3h1.9L36.1,74.7L36.1,74.7z M35.5,73H34l0.6-2.1l0,0L35.5,73L35.5,73
			z M29.5,74.7h3v-0.4h-2.3v-1.5h2.3v-0.4h-2.3v-1.5h2.3v-0.4h-3V74.7L29.5,74.7z M28,74.7h0.6v-4.3H28v1.9h-2.3v-1.9H25v4.3h0.6
			v-1.9H28V74.7L28,74.7z"/>
		<path fill="#E30613" d="M94.4,46.1C94.4,20.7,73.7,0,48.3,0S2.1,20.5,2.1,46.1c0,25.4,20.7,46.1,46.1,46.1S94.4,71.5,94.4,46.1
			L94.4,46.1z M91.6,46.1c0,23.9-19.4,43.3-43.3,43.3C24.4,89.5,4.9,70,4.9,46.1c0-23.9,19.4-43.3,43.3-43.3
			C72.2,2.8,91.6,22,91.6,46.1L91.6,46.1z"/>
		<path fill="#E30613" d="M80.1,36.9c0,0,8.1-5.1,7.7,7.5c0,0-3,12.6-0.6,22.2L85.2,69c0,0-4.1-6.2-4.1-17.1c0,0,0.2-1.9-2.6,0
			c0,0-12.8,10.9-31.8,13.5c-19,2.4-46.8,6-46.8,6s-0.6-3.8,10.5-6.6c11.1-2.8,39.9-6.8,50.6-13.9C72.2,43.6,80.1,36.9,80.1,36.9
			L80.1,36.9z"/>
		<path fill="#E30613" d="M94,42.7c3.2,0,5.8-2.6,5.8-5.8c0-3.2-2.6-5.8-5.8-5.8c-3.2,0-5.8,2.6-5.8,5.8C88.4,40.1,91,42.7,94,42.7
			L94,42.7z"/>
	</g>
	<g>
		<path fill="#FFFFFF" d="M172.7,54.9v-0.6c0-0.2,0-0.2,0-0.4v-3.8h3c0,0,0.9,0,0.9-0.9v-1.5c0,0,0-0.9-0.9-0.9h-3v-3
			c0,0,0-1.7-1.7-1.7h-0.9c0,0-1.7,0-1.7,1.7v0.4l0,0v2.6h-5.8c0,0-0.2,0-0.6,0.2c-1.7,0.4-4.5,1.7-5.1,5.6c0,0.2,0,0.2,0,0.4v0.2
			c0,0.4,0,0.9,0,1.3s0,0.9,0,1.3v6c0,0,0,1.3,1.3,1.3h1.5c0,0,1.3,0,1.3-1.3v-8.5c0.2-1.1,0.9-2.8,3.6-3.2h3.8v6.2
			c0,0,0,7.3,7.3,7.3h2.1v-3C172.7,60,172.7,54.9,172.7,54.9L172.7,54.9z M154.8,55.3c0-4.7-4.1-8.8-9-8.8c-4.9,0-9,3.8-9,8.8
			c0,4.7,4.1,8.8,9,8.8C150.9,64,154.8,60.2,154.8,55.3L154.8,55.3z M150.3,55.3c0,3.2-1.9,5.8-4.5,5.8c-2.3,0-4.5-2.6-4.5-5.8
			c0-3.2,1.9-5.8,4.5-5.8C148.4,49.7,150.3,52.3,150.3,55.3L150.3,55.3z M136.4,55.3c0-4.7-3.6-8.8-8.3-8.8c-4.5,0-8.1,3.8-8.3,8.5
			l0,0v0.2l0,0l0,0v14.5c0,0,0,1.3,1.3,1.3h1.5c0,0,1.3,0,1.3-1.3v-7c1.3,0.9,2.8,1.3,4.3,1.3C132.8,64,136.4,60.2,136.4,55.3
			L136.4,55.3z M132.4,55.3c0,3.2-1.9,5.8-4.1,5.8c-2.3,0-4.1-2.6-4.1-5.8c0-3.2,1.9-5.8,4.1-5.8C130.4,49.7,132.4,52.3,132.4,55.3
			L132.4,55.3z M117.8,59.8c0,0,0.4-0.9,0.4-1.9c0-1.5-1.1-3.2-5.8-4.3c-0.9-0.2-2.1-0.4-3.6-0.6c0,0-2.3-0.6-1.3-2.3
			c0,0,0-0.6,2.3-0.9h6.8V47h-7H108c-2.1,0.4-5.3,1.5-5.1,4.9c0,0,0,3.8,6,3.8c0,0,7.3,0.6,3.8,3.6c0,0-1.1,0.6-2.3,0.9h-7.9v2.6
			h8.8h0.2C112.1,62.8,116.3,62.8,117.8,59.8L117.8,59.8z"/>
		<path fill="#E30613" d="M195.6,41.2v-1.5c0,0,0-0.9-0.9-0.9h-4.5c-0.4,0-0.9,0-1.9,0.4c-2.1,0.9-5.6,2.8-3.2,7.5
			c0,0,1.1,1.7-1.1,2.3c0,0-8.8,3.8-2.8,11.3c0,0,2.1,2.8,6.2,3c0.4,0,1.9,0,2.8-0.2c0.6-0.2,1.5-0.4,2.3-0.9
			c1.3-0.6,2.1-1.5,2.8-0.9l1.1,1.3h4.7l-12.2-17.9c0,0-1.5-2.6,1.9-3.2c0.2,0,0.2,0,0.2,0h3.4C194.9,42,195.6,42,195.6,41.2
			L195.6,41.2z M191.7,56.8c1.7,1.7-0.9,2.6-0.9,2.6c-2.1,1.1-3.6,0.2-4.7-0.4c-0.6-0.4-1.5-1.7-1.7-2.1c-0.9-2.1,1.3-4.5,1.3-4.5
			c1.5-1.7,2.3-0.6,2.3-0.6L191.7,56.8L191.7,56.8z"/>
		<path fill="#FFFFFF" d="M286.5,50.6c0,0,0-0.6,2.3-0.9h6.6V47h-7H287c-1.9,0.4-5.1,1.5-4.9,4.9c0,0,0,3.8,5.8,3.8
			c0,0,7,0.6,3.8,3.6c0,0-0.6,0.4-2.3,0.4c-0.9,0-7.9,0-7.9,0v3h7.3h1.3c0.9,0,4.9-0.2,6.2-3.2c0,0,0.4-0.9,0.4-1.9
			c0-1.5-1.1-3.2-5.6-4.3c-0.9-0.2-2.1-0.4-3.4-0.6C287.8,52.7,285.5,52.3,286.5,50.6L286.5,50.6z M281,59.8c0,0,0.4-0.9,0.4-1.9
			c0-1.5-1.1-3.2-5.6-4.3c-0.9-0.2-2.1-0.4-3.4-0.6c0,0-2.3-0.6-1.1-2.3c0,0,0-0.6,2.3-0.9h6.6V47h-7h-1.5c-1.9,0.4-5.1,1.5-4.9,4.9
			c0,0,0,3.8,5.8,3.8c0,0,7,0.6,3.8,3.6c0,0-0.6,0.4-2.3,0.4c-0.6,0-4.5,0-6.6,0l0,0h-2.3l0,0h-6.6h-0.2c-2.3,0-4.5-2.1-4.5-4.9l0,0
			h9l0,0l0,0h4.3v-0.2c0-4.5-3.8-8.1-8.8-8.1s-8.8,3.6-8.8,8.1s3.8,8.1,8.5,8.1l0,0l0,0c0,0,0,0,0.2,0l0,0h7.9h1.3h6h1.3
			C275.6,63,279.7,62.8,281,59.8L281,59.8z M254.5,52.1c0.9-1.5,2.1-2.3,3.8-2.3c1.7,0,3,0.9,3.8,2.3H254.5L254.5,52.1z M247.7,59.1
			L247.7,59.1v-6.2c0,0,0-6.2-6.2-6.2h-3.2c0,0-6.2,0-6.2,6.2v6.2l0,0v2.1c0,0,0,1.7,1.7,1.7h1.1c0,0,1.7,0,1.7-1.7V54l0,0v-1.5
			c0-2.6,2.6-2.6,2.6-2.6h1.5c2.6,0,2.6,2.6,2.6,2.6V54l0,0v7.5c0,0,0,1.7,1.7,1.7h1.1c0,0,1.7,0,1.7-1.7V59.1L247.7,59.1z
			 M228.4,63.2h2.1v-3c-4.9-0.2-4.9-5.3-4.9-5.3v-0.6c0-0.2,0-0.2,0-0.4v-3.8h3c0,0,0.9,0,0.9-0.9v-1.5c0,0,0-0.9-0.9-0.9h-3v-3
			c0,0,0-1.7-1.7-1.7h-0.9c0,0-1.7,0-1.7,1.7v0.4l0,0v12C221.2,56.1,221.2,63.2,228.4,63.2L228.4,63.2z M219.9,42.3
			c0-1.5-1.3-2.6-2.6-2.6c-1.5,0-2.6,1.3-2.6,2.6c0,1.5,1.3,2.6,2.6,2.6C218.8,45,219.9,43.7,219.9,42.3L219.9,42.3z M213.5,42v-3
			h-2.3c0,0-7.3,0-7.3,7.3h-1.1c0,0-0.9,0-0.9,0.9v1.5c0,0,0,0.9,0.9,0.9h1.1V54v7.5c0,0,0,1.7,1.7,1.7h1.5c0,0,1.7,0,1.7-1.7V49.7
			h2.1c0,0,0.9,0,0.9-0.9v-1.5c0,0,0-0.9-0.9-0.9h-2.3c0,0,0-0.2-0.2-0.2C209.2,42.5,212.9,42.3,213.5,42L213.5,42z M215,48v13.5
			c0,0,0,1.7,1.7,1.7h1.5c0,0,1.7,0,1.7-1.7V48c0,0,0-1.7-1.7-1.7h-1.5C216.7,46.3,215,46.3,215,48L215,48z"/>
		<path fill="#FFFFFF" d="M296.8,66.2h-0.6l-1.3,2.1l-1.3-2.1h-0.6l1.7,2.6v1.9h0.6v-1.9L296.8,66.2L296.8,66.2z M292.3,69.2
			c0-0.2,0.2-0.6,0.2-1.1c0-0.6-0.2-1.3-0.6-1.5c-0.4-0.4-0.9-0.4-1.5-0.4h-1.5v4.5h1.5c0.4,0,0.6,0,1.1-0.2c0.2,0,0.4-0.2,0.6-0.4
			C292.1,69.8,292.3,69.6,292.3,69.2L292.3,69.2z M291.9,68.3c0,0.2,0,0.4,0,0.6s-0.2,0.4-0.2,0.4c0,0.2-0.2,0.2-0.2,0.2
			c-0.2,0-0.2,0.2-0.4,0.2c-0.2,0-0.2,0-0.2,0h-0.2h-1.1v-3.4h1.1c0.2,0,0.4,0,0.6,0.2c0.2,0,0.4,0.2,0.4,0.4
			c0.2,0.2,0.2,0.4,0.2,0.6C291.9,67.9,291.9,68.1,291.9,68.3L291.9,68.3z M288,69.2c0-0.2,0.2-0.6,0.2-0.9c0-0.2,0-0.6-0.2-0.9
			c0-0.2-0.2-0.4-0.4-0.6c-0.2-0.2-0.4-0.4-0.6-0.4c-0.2-0.2-0.6-0.2-0.9-0.2s-0.6,0-0.9,0.2c-0.2,0.2-0.4,0.2-0.6,0.4
			c-0.2,0.2-0.2,0.4-0.4,0.6c0,0.2-0.2,0.6-0.2,0.9c0,0.2,0,0.6,0.2,0.9c0,0.2,0.2,0.4,0.4,0.6c0.2,0.2,0.4,0.4,0.6,0.4
			c0.2,0.2,0.6,0.2,0.9,0.2s0.6,0,0.9-0.2c0.2-0.2,0.4-0.2,0.6-0.4C287.6,69.8,287.8,69.6,288,69.2L288,69.2z M287.4,68.3
			c0,0.2,0,0.4,0,0.6s-0.2,0.4-0.2,0.6c-0.2,0.2-0.2,0.2-0.4,0.4c-0.2,0-0.4,0.2-0.6,0.2s-0.4,0-0.6-0.2c-0.2,0-0.4-0.2-0.4-0.4
			c-0.2-0.2-0.2-0.4-0.2-0.6s0-0.4,0-0.6c0-0.2,0-0.4,0-0.6c0-0.2,0.2-0.4,0.2-0.6c0.2-0.2,0.2-0.2,0.4-0.4c0.2,0,0.4-0.2,0.6-0.2
			s0.4,0,0.6,0.2c0.2,0,0.4,0.2,0.4,0.4c0.2,0.2,0.2,0.4,0.2,0.6C287.4,67.9,287.4,68.1,287.4,68.3L287.4,68.3z M282.5,68.3
			L282.5,68.3c0.2,0,0.4-0.2,0.4-0.4c0.2-0.2,0.2-0.4,0.2-0.6s0-0.4-0.2-0.6c0-0.2-0.2-0.2-0.4-0.4h-0.2H282c-0.2,0-0.2,0-0.4,0
			c-0.2,0-0.2,0-0.2,0h-1.7v4.5h2.1c0.2,0,0.4,0,0.6-0.2c0.2,0,0.2-0.2,0.4-0.2c0.2-0.2,0.2-0.2,0.2-0.4c0-0.2,0-0.2,0-0.4
			c0-0.2,0-0.4-0.2-0.6C282.9,68.3,282.7,68.3,282.5,68.3L282.5,68.3z M282.3,67.9c-0.2,0.2-0.4,0.2-0.6,0.2h-1.3v-1.5h1.3
			c0.2,0,0.2,0,0.4,0c0.2,0,0.2,0,0.2,0l0.2,0.2c0,0,0,0.2,0,0.4C282.5,67.7,282.5,67.7,282.3,67.9L282.3,67.9z M282.7,68.9
			c0,0,0,0.2,0,0.4c0,0.2,0,0.4-0.2,0.6c-0.2,0.2-0.4,0.2-0.6,0.2h-1.5v-1.5h1.3c0.2,0,0.2,0,0.4,0c0.2,0,0.2,0,0.2,0.2
			C282.5,68.7,282.5,68.7,282.7,68.9L282.7,68.9z M276.7,68.3c0-0.4-0.4-0.9-0.9-0.9s-0.9,0.4-0.9,0.9c0,0.4,0.4,0.9,0.9,0.9
			S276.7,68.7,276.7,68.3L276.7,68.3z M271.2,70.7h0.6v-4.5h-0.6v1.9h-2.3v-1.9h-0.6v4.5h0.6v-2.1h2.3V70.7L271.2,70.7z M266.2,66.6
			h1.5v-0.4h-3.6v0.4h1.5v4.1h0.6V66.6L266.2,66.6z M264.8,70h-2.3V66h-0.6v4.5h3V70L264.8,70z M260.7,70.7h0.6l-1.7-4.5H259
			l-1.7,4.5h0.6l0.4-1.3h1.9L260.7,70.7L260.7,70.7z M260.1,68.7h-1.5l0.9-2.1l0,0L260.1,68.7L260.1,68.7z M253.9,70.7h3.2v-0.4
			h-2.6v-1.5h2.3v-0.4h-2.3v-1.5h2.6v-0.4h-3.2V70.7L253.9,70.7z M252.4,70.7h0.6v-4.5h-0.6v1.9H250v-1.9h-0.6v4.5h0.6v-2.1h2.3
			V70.7L252.4,70.7z"/>
		<g>
			<path fill="#FFFFFF" d="M304.5,46.1c0,1.9-1.5,3.4-3.4,3.4c-1.9,0-3.4-1.7-3.4-3.4c0-1.7,1.5-3.4,3.4-3.4
				C302.8,42.7,304.5,44.2,304.5,46.1z M298.3,46.1c0,1.5,1.3,2.8,2.8,2.8c1.5,0,2.8-1.3,2.8-2.8c0-1.5-1.3-2.8-2.8-2.8
				C299.6,43.3,298.3,44.6,298.3,46.1z"/>
			<path fill="#FFFFFF" d="M301.5,46.3c0.2,0.2,0.4,0.4,0.6,0.6c0.2,0.2,0.4,0.6,0.6,0.9l0,0l0,0c-0.2,0-0.4,0-0.6,0h-0.2
				c-0.2-0.2-0.2-0.6-0.4-0.9c0,0,0-0.2-0.2-0.2c-0.2-0.4-0.4-0.4-0.9-0.4c0,0.4,0,1.1,0,1.5c-0.2,0-0.4,0-0.6,0c0-1.3,0-2.3,0-3.6
				l0,0c0.6,0,1.3,0,1.9,0c0.2,0,0.6,0,0.9,0.4c0.4,0.4,0.4,1.3-0.4,1.7C301.7,46.3,301.7,46.3,301.5,46.3z M300.2,44.8
				c0,0.4,0,0.6,0,1.1c0.4,0,0.6,0,1.1,0c0.2,0,0.4-0.2,0.4-0.4c0-0.2-0.2-0.4-0.4-0.4s-0.2,0-0.4,0
				C300.8,44.8,300.4,44.8,300.2,44.8z"/>
		</g>
	</g>
</g>
</svg>
