<?xml version="1.0" encoding="utf-8"?>
<!-- Generator: Adobe Illustrator 16.0.0, SVG Export Plug-In . SVG Version: 6.00 Build 0)  -->
<!DOCTYPE svg PUBLIC "-//W3C//DTD SVG 1.1//EN" "http://www.w3.org/Graphics/SVG/1.1/DTD/svg11.dtd">
<svg version="1.1" id="Layer_1" xmlns="http://www.w3.org/2000/svg" xmlns:xlink="http://www.w3.org/1999/xlink" x="0px" y="0px"
	 width="45.334px" height="45.334px" viewBox="0 0 45.334 45.334" enable-background="new 0 0 45.334 45.334" xml:space="preserve">
<g>
	<path fill="#FFFFFF" d="M17.94,0C8.032,0,0,8.032,0,17.94c0,9.908,8.032,17.94,17.94,17.94c9.907,0,17.94-8.032,17.94-17.94
		C35.88,8.032,27.847,0,17.94,0 M17.94,31.199c-7.323,0-13.26-5.937-13.26-13.259c0-7.323,5.937-13.26,13.26-13.26
		S31.2,10.617,31.2,17.94C31.2,25.263,25.263,31.199,17.94,31.199"/>
	
		<rect x="24.849" y="33.54" transform="matrix(0.7071 0.7071 -0.7071 0.7071 35.8797 -14.8616)" fill="#FFFFFF" width="22.061" height="4.679"/>
</g>
</svg>
