<?xml version="1.0" encoding="utf-8"?>
<!-- Generator: Adobe Illustrator 16.0.0, SVG Export Plug-In . SVG Version: 6.00 Build 0)  -->
<!DOCTYPE svg PUBLIC "-//W3C//DTD SVG 1.1//EN" "http://www.w3.org/Graphics/SVG/1.1/DTD/svg11.dtd">
<svg version="1.1" id="Layer_1" xmlns="http://www.w3.org/2000/svg" xmlns:xlink="http://www.w3.org/1999/xlink" x="0px" y="0px"
	 width="23.003px" height="23.003px" viewBox="0 0 23.003 23.003" enable-background="new 0 0 23.003 23.003" xml:space="preserve">
<g>
	<path opacity="0.8" d="M11.501,0c3.072,0,5.961,1.195,8.133,3.369c2.173,2.172,3.369,5.061,3.369,8.132
		c0,3.073-1.196,5.961-3.369,8.133c-2.172,2.174-5.061,3.369-8.133,3.369c-3.071,0-5.96-1.196-8.132-3.369
		C1.196,17.462,0,14.574,0,11.501c0-3.071,1.196-5.96,3.369-8.132C5.541,1.195,8.43,0,11.501,0"/>
	<path fill="#FFFFFF" d="M7.549,7.656v0.002l3.845,3.845l-3.845,3.844c-0.625,0.625-0.625,1.641,0,2.266
		c0.626,0.625,1.641,0.626,2.266,0l3.843-3.844l2.267-2.267l-2.267-2.267L9.814,5.393c-0.625-0.627-1.64-0.627-2.266,0
		C6.924,6.017,6.924,7.031,7.549,7.656"/>
</g>
</svg>
