<?xml version="1.0" encoding="utf-8"?>
<!-- Generator: Adobe Illustrator 22.1.0, SVG Export Plug-In . SVG Version: 6.00 Build 0)  -->
<svg version="1.1" id="Capa_1" xmlns="http://www.w3.org/2000/svg" xmlns:xlink="http://www.w3.org/1999/xlink" x="0px" y="0px"
	 viewBox="0 0 51.5 64.8" style="enable-background:new 0 0 51.5 64.8;" xml:space="preserve">
<style type="text/css">
	.st0{fill:#E1251B;}
	.st1{fill:#FFFFFF;}
</style>
<g>
	<path class="st0" d="M23.8,0.1c1.1,0,2.2,0,3.3,0c0.6,0.1,1.3,0.2,1.9,0.3c2.8,0.4,5.5,1.3,8,2.7c2.9,1.6,5.3,3.6,7.3,6.2
		c2,2.5,3.5,5.4,4.4,8.5c0.9,3,1.1,6.1,0.8,9.3c-0.5,4.2-2,8-4.4,11.5c-1.6,2.2-3.2,4.5-4.8,6.7c-1.8,2.5-3.6,5.1-5.4,7.6
		c-2.2,3.1-4.4,6.3-6.7,9.4c-0.7,0.9-1.2,2-2.3,2.5c-0.3,0-0.7,0-1,0c-0.4-0.3-0.8-0.5-1.1-0.9c-1.4-1.8-2.7-3.7-4-5.6
		c-2.3-3.3-4.7-6.6-7-9.9c-2.5-3.5-5-7-7.5-10.6C3,34.3,1.7,30.5,1.3,26.3c-0.3-3.1,0.1-6.1,1-9.1c1.2-3.7,3.1-7,5.9-9.8
		c2-2.1,4.3-3.7,6.9-5c1.9-0.9,3.8-1.5,5.9-1.9C21.9,0.3,22.9,0.2,23.8,0.1z"/>
</g>
<path class="st1" d="M40,13.3c0,0-4.9-0.1-5,5.1v0.3h-1.8v2.8H35v9.6l-9.2-13.2c-0.2-0.6-0.4-2.2,1.7-2.2c2.6,0,3.1,0.1,3.1,0.1V13
	c0,0-2.8-0.2-4.5,0c-1.7,0.2-5.7,1.9-3.2,6.6c0,0,0.3,0.5-0.6,0.9c0,0-8.3,4-0.6,10.4c0,0,4.2,2.9,8.2-1.1l1.3,1.5h4l-0.1-0.1h3.7
	v-9.9h1.7v-2.8h-1.7v-0.9c0,0,0.3-2,2.3-1.5C43.2,16.7,40,13.3,40,13.3L40,13.3z M28.9,28.7c-3.1,1.6-4.7,0.2-4.7,0.2
	c-4.1-3.7,0.6-6.4,0.6-6.4L28.9,28.7L28.9,28.7z M11.9,21.7l5.6-0.2v-2.8c0,0-8.7-0.9-9.4,2.2c-0.8,3.2-1,4.3,2.7,5.2
	c3.7,0.8,4.9,1.4,3,2.5c0,0-2.2,0.6-5.2,0.3l1.1,2.9c0,0,5.1-0.1,7.3-1c0,0,3.9-3-0.4-6.2c0,0-2.4-1.1-4.9-1.5
	C11.8,23.3,9.1,22.4,11.9,21.7L11.9,21.7z"/>
</svg>
